Coordinates
version=1
nRows=31
nColumns=38
inDegrees=no

Units are S.I. units (second, meters, Newtons, ...)
If the header above contains a line with 'inDegrees', this indicates whether rotational values are in degrees (yes) or radians (no).

endheader
time	pelvis_tilt	pelvis_list	pelvis_rotation	pelvis_tx	pelvis_ty	pelvis_tz	hip_flexion_r	hip_adduction_r	hip_rotation_r	knee_angle_r	ankle_angle_r	subtalar_angle_r	mtp_angle_r	hip_flexion_l	hip_adduction_l	hip_rotation_l	knee_angle_l	ankle_angle_l	subtalar_angle_l	mtp_angle_l	lumbar_extension	lumbar_bending	lumbar_rotation	arm_flex_r	arm_add_r	arm_rot_r	elbow_flex_r	pro_sup_r	wrist_flex_r	wrist_dev_r	arm_flex_l	arm_add_l	arm_rot_l	elbow_flex_l	pro_sup_l	wrist_flex_l	wrist_dev_l
0	-2.77256	1.44448	-2.10101	0.564256	0.226013	1.02844	-0.0839755	-0.272516	-0.0775984	0.150237	-0.419463	0	0	-0.248397	0.0692366	-0.301764	0	-0.462159	0	0	-0.133754	-0.101536	0.0216269	0.0116373	-0.372929	0.940455	0.478466	0.482689	0	0	0.0315497	-0.350648	0.618821	0.482112	0.92418	0	0
0.01	-2.76895	1.44445	-2.10697	0.563281	0.225997	1.02833	-0.0817276	-0.274473	-0.0757045	0.151676	-0.420362	0	0	-0.247265	0.0711877	-0.301059	0	-0.460829	0	0	-0.133657	-0.1032	0.0231246	0.0118169	-0.373441	0.940275	0.4796	0.48222	0	0	0.0327252	-0.350472	0.616254	0.482629	0.92794	0	0
0.02	-2.76779	1.44436	-2.11037	0.562343	0.226018	1.02824	-0.0800599	-0.276045	-0.0742989	0.15255	-0.420936	0	0	-0.24636	0.0728223	-0.300855	0	-0.459782	0	0	-0.133332	-0.104449	0.0244583	0.0118937	-0.373941	0.940565	0.480634	0.482366	0	0	0.0337248	-0.350208	0.614299	0.482885	0.930183	0	0
0.03	-2.76481	1.44437	-2.11569	0.561398	0.226028	1.02811	-0.0779549	-0.277873	-0.0725096	0.153739	-0.421687	0	0	-0.245428	0.0746522	-0.300449	0	-0.458418	0	0	-0.132846	-0.105889	0.0258259	0.0120668	-0.374538	0.941264	0.481849	0.482822	0	0	0.0343923	-0.349924	0.611383	0.48336	0.933692	0	0
0.04	-2.76262	1.4442	-2.12026	0.560451	0.226024	1.02796	-0.0760321	-0.27972	-0.0702904	0.154802	-0.42236	0	0	-0.244748	0.0764705	-0.3	0	-0.457195	0	0	-0.132688	-0.107345	0.0270524	0.0124705	-0.375246	0.942133	0.483258	0.483338	0	0	0.0347772	-0.349849	0.608427	0.484342	0.936942	0	0
0.05	-2.76551	1.4442	-2.12037	0.559576	0.225831	1.02788	-0.0736785	-0.280698	-0.0656669	0.15629	-0.422987	0	0	-0.244	0.077617	-0.299678	0	-0.455963	0	0	-0.133401	-0.108386	0.0286503	0.0138028	-0.375706	0.94325	0.484172	0.483656	0	0	0.0353445	-0.350041	0.605342	0.485808	0.939715	0	0
0.06	-2.77105	1.44311	-2.11731	0.558646	0.225808	1.02786	-0.0724735	-0.282169	-0.0642005	0.158643	-0.42339	0	0	-0.244847	0.0790645	-0.300003	0	-0.454908	0	0	-0.13478	-0.109616	0.029619	0.0148597	-0.376334	0.94439	0.485342	0.483823	0	0	0.0351734	-0.350354	0.601831	0.487739	0.941766	0	0
0.07	-2.77464	1.44202	-2.11621	0.557704	0.225793	1.02781	-0.0710248	-0.283924	-0.0626009	0.161178	-0.423692	0	0	-0.245633	0.0807841	-0.300568	0	-0.454029	0	0	-0.135888	-0.111084	0.0303963	0.0160412	-0.3768	0.945806	0.486199	0.484043	0	0	0.0345879	-0.350844	0.598328	0.489947	0.943651	0	0
0.08	-2.77723	1.44099	-2.11605	0.556737	0.225748	1.02774	-0.0693447	-0.285783	-0.0605497	0.163892	-0.423898	0	0	-0.24629	0.0825993	-0.301228	0	-0.453324	0	0	-0.13694	-0.112731	0.0305796	0.0176429	-0.377193	0.94771	0.48694	0.484541	0	0	0.0334646	-0.35186	0.59519	0.492829	0.945335	0	0
0.09	-2.77807	1.44033	-2.11768	0.555762	0.22567	1.02763	-0.0669782	-0.287658	-0.0576031	0.166923	-0.424006	0	0	-0.246534	0.0844503	-0.30173	0	-0.452637	0	0	-0.137377	-0.114498	0.0306754	0.019324	-0.377534	0.950004	0.487617	0.485285	0	0	0.0320032	-0.353119	0.592347	0.495809	0.946612	0	0
0.1	-2.77447	1.44037	-2.12399	0.554804	0.225609	1.02742	-0.0633045	-0.289765	-0.0539076	0.170446	-0.424098	0	0	-0.245956	0.0865068	-0.302163	0	-0.451707	0	0	-0.136339	-0.116417	0.0311848	0.0203199	-0.377882	0.951573	0.488402	0.485396	0	0	0.0303303	-0.354314	0.59035	0.498158	0.947667	0	0
0.11	-2.7629	1.44212	-2.13832	0.553874	0.225591	1.02719	-0.0573721	-0.291747	-0.0493369	0.174047	-0.424436	0	0	-0.243238	0.0885208	-0.301996	0	-0.450882	0	0	-0.132438	-0.118033	0.0341146	0.0192194	-0.378012	0.951095	0.48836	0.48424	0	0	0.0305855	-0.353469	0.590097	0.496099	0.948454	0	0
0.12	-2.75248	1.4436	-2.1517	0.552943	0.225569	1.02696	-0.0516904	-0.293703	-0.0447537	0.177622	-0.424816	0	0	-0.241057	0.0905872	-0.302046	0	-0.450306	0	0	-0.128905	-0.119563	0.0367788	0.018416	-0.378267	0.950963	0.488401	0.482555	0	0	0.0301195	-0.352895	0.589042	0.494898	0.948734	0	0
0.13	-2.74287	1.44476	-2.16427	0.551991	0.225519	1.02674	-0.0463424	-0.295666	-0.0402363	0.181102	-0.42525	0	0	-0.239263	0.0927303	-0.30221	0	-0.449951	0	0	-0.125915	-0.121182	0.0391388	0.0179159	-0.378583	0.95132	0.488445	0.480715	0	0	0.0292803	-0.352649	0.587583	0.494341	0.948995	0	0
0.14	-2.73453	1.44559	-2.17552	0.551015	0.225434	1.02654	-0.0411321	-0.297665	-0.0358924	0.185001	-0.425766	0	0	-0.237842	0.0948839	-0.302622	0	-0.449761	0	0	-0.123438	-0.12275	0.0412217	0.0176474	-0.379115	0.952275	0.488648	0.478934	0	0	0.0283387	-0.352327	0.585862	0.493589	0.949468	0	0
0.15	-2.72788	1.44608	-2.185	0.550035	0.225301	1.02636	-0.036257	-0.299601	-0.0318412	0.188918	-0.426423	0	0	-0.236875	0.0969841	-0.303048	0	-0.449554	0	0	-0.121651	-0.12429	0.0429737	0.0176721	-0.37978	0.953784	0.489036	0.477059	0	0	0.0272115	-0.352108	0.58376	0.493106	0.949638	0	0
0.16	-2.72371	1.44625	-2.19193	0.549048	0.225108	1.02624	-0.0317368	-0.30143	-0.0280409	0.193	-0.427258	0	0	-0.236337	0.0989915	-0.303484	0	-0.449502	0	0	-0.12082	-0.126024	0.0443344	0.018212	-0.380212	0.955865	0.489177	0.474922	0	0	0.0257794	-0.352664	0.581797	0.493979	0.949612	0	0
0.17	-2.72281	1.44596	-2.19559	0.54804	0.224872	1.02617	-0.0279555	-0.303142	-0.0241258	0.196826	-0.428202	0	0	-0.236488	0.100956	-0.30393	0	-0.449642	0	0	-0.121069	-0.127742	0.0453751	0.0191199	-0.380762	0.958305	0.489516	0.472538	0	0	0.024226	-0.353635	0.580109	0.495568	0.949718	0	0
0.18	-2.72484	1.44535	-2.19636	0.547023	0.224601	1.02613	-0.0244992	-0.304754	-0.0201322	0.200948	-0.42916	0	0	-0.237168	0.102795	-0.304457	0	-0.449518	0	0	-0.121977	-0.129337	0.0461477	0.0203144	-0.381402	0.960732	0.489906	0.469715	0	0	0.0225237	-0.354742	0.578521	0.497291	0.950253	0	0
0.19	-2.72966	1.44462	-2.19425	0.546004	0.224329	1.02608	-0.0214004	-0.306072	-0.0163669	0.204967	-0.430149	0	0	-0.238072	0.104371	-0.30548	0	-0.449068	0	0	-0.123207	-0.130623	0.0466867	0.0215054	-0.382152	0.963465	0.490442	0.466825	0	0	0.0206675	-0.355717	0.576527	0.498815	0.950517	0	0
0.2	-2.73893	1.44389	-2.18775	0.545021	0.224062	1.02602	-0.0187867	-0.30686	-0.0123715	0.208643	-0.431152	0	0	-0.238924	0.105406	-0.308303	0	-0.448472	0	0	-0.124993	-0.131468	0.047009	0.0227575	-0.383113	0.966552	0.491413	0.464045	0	0	0.0185133	-0.356998	0.57466	0.500889	0.950225	0	0
0.21	-2.74844	1.44285	-2.1809	0.544018	0.223734	1.026	-0.0164147	-0.30777	-0.00839172	0.212387	-0.432189	0	0	-0.240186	0.106609	-0.310544	0	-0.448269	0	0	-0.127431	-0.132492	0.0469623	0.0242223	-0.384135	0.969804	0.492619	0.461635	0	0	0.0164128	-0.358509	0.573215	0.503062	0.949538	0	0
0.22	-2.75701	1.44163	-2.17508	0.54297	0.223367	1.02598	-0.0137084	-0.309009	-0.00392098	0.216894	-0.433771	0	0	-0.241972	0.10813	-0.312369	0	-0.448376	0	0	-0.130166	-0.133672	0.0464837	0.0263331	-0.385357	0.974952	0.493824	0.458574	0	0	0.0138655	-0.360277	0.571837	0.505747	0.947854	0	0
0.23	-2.76209	1.44131	-2.17267	0.541936	0.223067	1.02589	-0.00989571	-0.310042	0.000750583	0.221646	-0.435114	0	0	-0.242731	0.109486	-0.313976	0	-0.448464	0	0	-0.131298	-0.134728	0.0464056	0.027238	-0.386229	0.977911	0.49471	0.45703	0	0	0.0114512	-0.361888	0.571811	0.507328	0.94671	0	0
0.24	-2.76035	1.44303	-2.17697	0.541011	0.222791	1.02581	-0.00353966	-0.310321	0.00660107	0.226928	-0.436631	0	0	-0.240668	0.110196	-0.315313	0	-0.448583	0	0	-0.129189	-0.135361	0.0486743	0.026093	-0.38616	0.979571	0.49384	0.45563	0	0	0.0111763	-0.361596	0.573726	0.503967	0.945516	0	0
0.25	-2.75813	1.44466	-2.18146	0.540048	0.222452	1.02573	0.00274879	-0.310609	0.0126158	0.232206	-0.438126	0	0	-0.238909	0.111001	-0.316183	0	-0.448988	0	0	-0.12749	-0.13611	0.0501252	0.0253511	-0.386144	0.98149	0.493269	0.454595	0	0	0.0105765	-0.361517	0.57529	0.500866	0.944366	0	0
0.26	-2.7585	1.44592	-2.1831	0.539079	0.222074	1.02569	0.00843758	-0.310727	0.0185343	0.237514	-0.439757	0	0	-0.237526	0.11164	-0.317002	0	-0.449368	0	0	-0.126568	-0.136775	0.0508858	0.0249301	-0.38624	0.983517	0.493097	0.453874	0	0	0.00972772	-0.361579	0.576393	0.498152	0.942984	0	0
0.27	-2.75968	1.44697	-2.18369	0.538104	0.221661	1.0257	0.0137995	-0.310777	0.024344	0.242725	-0.441502	0	0	-0.236587	0.112276	-0.317622	0	-0.449792	0	0	-0.12621	-0.137657	0.0509811	0.0247866	-0.386095	0.985332	0.492801	0.453361	0	0	0.00853616	-0.362063	0.577136	0.496187	0.941577	0	0
0.28	-2.7621	1.44786	-2.18294	0.537142	0.221239	1.02572	0.0188924	-0.310752	0.0303431	0.24788	-0.443298	0	0	-0.235878	0.112854	-0.318247	0	-0.450174	0	0	-0.126206	-0.138574	0.05077	0.0246625	-0.385907	0.986632	0.49263	0.452882	0	0	0.00708704	-0.362798	0.577615	0.494697	0.940377	0	0
0.29	-2.76851	1.44859	-2.17818	0.53621	0.220791	1.02575	0.0235139	-0.310272	0.0366402	0.253151	-0.445081	0	0	-0.23519	0.112979	-0.318873	0	-0.450339	0	0	-0.126823	-0.139182	0.0502057	0.0246995	-0.385843	0.987564	0.492771	0.452754	0	0	0.00524366	-0.363895	0.577957	0.493971	0.939204	0	0
0.3	-2.77832	1.44882	-2.16957	0.535265	0.220278	1.02583	0.0272853	-0.309753	0.0425502	0.258377	-0.446867	0	0	-0.235089	0.112845	-0.31886	0	-0.450478	0	0	-0.12858	-0.139772	0.0489579	0.0250093	-0.385849	0.988443	0.493265	0.453566	0	0	0.00335227	-0.365296	0.578085	0.493876	0.93807	0	0
